<svg id="ESR-Greyscale" xmlns="http://www.w3.org/2000/svg" viewBox="0 0 627.28 159.49"><defs><style>.cls-1{fill:#fff;}.cls-2{fill:#1d1d1b;}.cls-3{fill:#b2b2b2;}.cls-4{fill:#706f6f;}</style></defs><title>UKRI_ESR_Council-Logo_Horiz-Grayscale</title><path class="cls-1" d="M333.65,56.48v5H314.71V33.36h18.54v5H320v6.35H332v5H320v6.71Z"/><path class="cls-1" d="M346.08,61.71A10,10,0,0,1,335.9,51.5a10.21,10.21,0,0,1,10.38-10.3,9.64,9.64,0,0,1,9.61,7.56h-5.47a4.66,4.66,0,0,0-4.26-2.69,5.12,5.12,0,0,0-5.07,5.38,5.12,5.12,0,0,0,5.07,5.39,4.63,4.63,0,0,0,4.1-2.41h5.51A9.78,9.78,0,0,1,346.08,61.71Z"/><path class="cls-1" d="M358.54,51.5a10.08,10.08,0,0,1,10.38-10.3,9.9,9.9,0,0,1,10.17,10.21,10,10,0,0,1-10.33,10.3A9.91,9.91,0,0,1,358.54,51.5Zm15.28,0c0-3.13-1.85-5.58-4.9-5.58s-5.11,2.45-5.11,5.58S365.86,57,368.92,57,373.82,54.59,373.82,51.45Z"/><path class="cls-1" d="M401.81,50.61v10.9h-5.35V51.82c0-.69.48-5.75-3.38-6-1.89-.12-5.26.92-5.26,6.19v9.45h-5.31V41.4h4.1l.68,2.46H388a7.67,7.67,0,0,1,6.11-2.66C399.28,41.2,401.81,45.06,401.81,50.61Z"/><path class="cls-1" d="M405.27,51.5a10.08,10.08,0,0,1,10.37-10.3,9.89,9.89,0,0,1,10.17,10.21,10,10,0,0,1-10.33,10.3A9.9,9.9,0,0,1,405.27,51.5Zm15.28,0c0-3.13-1.85-5.58-4.91-5.58s-5.1,2.45-5.1,5.58,2,5.59,5.1,5.59S420.55,54.59,420.55,51.45Z"/><path class="cls-1" d="M459.27,50.61v10.9h-5.35V51.82c0-2.78.28-6.28-3.42-6-1,.08-3.61.52-3.61,6.19v9.45h-5.31V51.82c0-2.78.28-6.28-3.42-6-1,.08-3.62.52-3.62,6.19v9.45h-5.31V41.4h4.11l.6,2.17h.64a6.2,6.2,0,0,1,4.87-2.37A6.63,6.63,0,0,1,445,44h.6a7.57,7.57,0,0,1,6.11-2.82C456.9,41.12,459.27,45,459.27,50.61Z"/><path class="cls-1" d="M462.61,35.77a3.42,3.42,0,0,1,3.46-3.41,3.38,3.38,0,0,1,3.38,3.41,3.43,3.43,0,0,1-3.38,3.38A3.47,3.47,0,0,1,462.61,35.77Zm6,25.74H463.5V41.4h5.14Z"/><path class="cls-1" d="M482.56,61.71A10,10,0,0,1,472.38,51.5a10.21,10.21,0,0,1,10.38-10.3,9.64,9.64,0,0,1,9.61,7.56H486.9a4.66,4.66,0,0,0-4.26-2.69,5.12,5.12,0,0,0-5.07,5.38,5.12,5.12,0,0,0,5.07,5.39,4.65,4.65,0,0,0,4.1-2.41h5.51A9.78,9.78,0,0,1,482.56,61.71Z"/><path class="cls-1" d="M333.57,98.84v3.86h-1.21c-2.33,0-4-.85-4.66-2.57-1.21,1.64-3.22,2.77-6.35,2.77-4.55,0-7.44-2.33-7.44-6,0-6.27,8.56-6.84,12.42-7-.08-2.33-1.37-3.17-3.42-3.17-2.85,0-3.05,1.73-3.05,1.73h-5c.36-3.58,3.3-6.08,8.2-6.08s8.17,2.38,8.17,8.21v5.34C331.2,98.28,332,98.84,333.57,98.84Zm-7.32-4.58v-.41c-3.66.41-7.28.85-7.28,2.94C319,99.85,325.93,99.6,326.25,94.26Z"/><path class="cls-1" d="M355.85,91.8v10.9H350.5V93c0-.68.48-5.75-3.38-6-1.89-.12-5.26.92-5.26,6.19v9.45h-5.31V82.6h4.1l.68,2.45H342a7.67,7.67,0,0,1,6.11-2.66C353.31,82.39,355.85,86.25,355.85,91.8Z"/><path class="cls-1" d="M378.89,74.15V102.7H375l-.57-1.93h-.6a6.59,6.59,0,0,1-5.11,2.13c-5.1,0-9.36-4.18-9.36-10.25s4.26-10.26,9.36-10.26a6.71,6.71,0,0,1,5.19,2.18V74.15Zm-5,18.5c0-3.34-1.81-5.31-4.42-5.31-2.46,0-4.91,1.77-4.91,5.31S367,98,369.44,98C372.05,98,373.86,96,373.86,92.65Z"/><path class="cls-1" d="M403.42,102.9c-6.15,0-10.42-4-10.42-9.29h5.23a4.88,4.88,0,0,0,5.15,4.31c1.36,0,4.1-.49,4.1-3.1,0-2.37-2.29-3.34-4.59-4.22-3.78-1.49-9.12-3.3-9.12-8.65,0-4.74,4.14-7.64,9.16-7.64,5.83,0,9.09,3.9,9.09,7.48h-5.15c-.28-1.57-2-2.57-4-2.57s-3.53,1-3.53,2.73,1.56,2.42,4.3,3.66c2.93,1.33,9.2,2.9,9.2,9.25C412.82,100.13,408.52,102.9,403.42,102.9Z"/><path class="cls-1" d="M415.36,92.69a10.08,10.08,0,0,1,10.37-10.3,9.91,9.91,0,0,1,10.18,10.22,10,10,0,0,1-10.34,10.29A9.91,9.91,0,0,1,415.36,92.69Zm15.28,0c0-3.14-1.85-5.59-4.91-5.59s-5.1,2.45-5.1,5.59,2.05,5.59,5.1,5.59S430.64,95.78,430.64,92.65Z"/><path class="cls-1" d="M448.86,102.9a10,10,0,0,1-10.18-10.21,10.21,10.21,0,0,1,10.38-10.3A9.64,9.64,0,0,1,458.67,90H453.2a4.68,4.68,0,0,0-4.26-2.69,5.4,5.4,0,0,0,0,10.78,4.66,4.66,0,0,0,4.1-2.42h5.5A9.75,9.75,0,0,1,448.86,102.9Z"/><path class="cls-1" d="M461.77,77a3.42,3.42,0,1,1,3.45,3.37A3.45,3.45,0,0,1,461.77,77Zm6,25.73h-5.15V82.6h5.15Z"/><path class="cls-1" d="M491.28,98.84v3.86h-1.21c-2.33,0-4-.85-4.66-2.57-1.21,1.64-3.22,2.77-6.35,2.77-4.55,0-7.44-2.33-7.44-6,0-6.27,8.56-6.84,12.42-7-.08-2.33-1.37-3.17-3.42-3.17-2.85,0-3.05,1.73-3.05,1.73h-5c.36-3.58,3.3-6.08,8.2-6.08s8.17,2.38,8.17,8.21v5.34C488.91,98.28,489.75,98.84,491.28,98.84ZM484,94.26v-.41c-3.66.41-7.28.85-7.28,2.94C476.68,99.85,483.64,99.6,484,94.26Z"/><path class="cls-1" d="M499.12,74.15V102.7h-5.23V74.15Z"/><path class="cls-1" d="M329.15,143.89l-6-10.33h-3.34v10.33h-5.11V115.75h9.93c4.63,0,8.73,3.09,8.73,8.64a8.93,8.93,0,0,1-5.07,8.2l6.8,11.3Zm-9.33-15.32h4.42a3.82,3.82,0,0,0,3.82-4.1,3.52,3.52,0,0,0-3.82-3.7h-4.42Z"/><path class="cls-1" d="M355.65,135.37H341a5.09,5.09,0,0,0,5.27,4.18,4.76,4.76,0,0,0,3.9-1.69h5.06a9.56,9.56,0,0,1-9.12,6.23,10.09,10.09,0,0,1-10.18-10.41,9.78,9.78,0,0,1,10-10.09C351.06,123.59,356.29,127.17,355.65,135.37Zm-14.36-4.06h9a4.08,4.08,0,0,0-4.26-3.34A5,5,0,0,0,341.29,131.31Z"/><path class="cls-1" d="M366.62,127.85c-1.68,0-2.41.84-2.41,1.69,0,1.36,1.81,1.77,3,2,3.58.76,7.19,1.85,7.19,6.11s-3.41,6.43-7.56,6.43c-4.62,0-8.2-2.81-8.44-7.07h4.95a3,3,0,0,0,3.37,2.77c2.06,0,2.54-1.08,2.54-1.93,0-1.49-1.41-1.93-2.78-2.25-2.37-.52-7.48-1.49-7.48-6.07,0-3.94,3.78-5.95,7.68-5.95,4.51,0,7.48,2.73,7.72,6.11h-4.94C369.32,129,368.67,127.85,366.62,127.85Z"/><path class="cls-1" d="M396.66,135.37H382a5.08,5.08,0,0,0,5.26,4.18,4.74,4.74,0,0,0,3.9-1.69h5.07a9.58,9.58,0,0,1-9.13,6.23,10.08,10.08,0,0,1-10.17-10.41,9.78,9.78,0,0,1,10-10.09C392.08,123.59,397.31,127.17,396.66,135.37Zm-14.35-4.06h9a4.07,4.07,0,0,0-4.26-3.34A5,5,0,0,0,382.31,131.31Z"/><path class="cls-1" d="M419,140v3.86h-1.21c-2.33,0-4-.84-4.66-2.57-1.21,1.65-3.22,2.77-6.35,2.77-4.55,0-7.44-2.33-7.44-6,0-6.27,8.56-6.83,12.42-7-.08-2.34-1.36-3.18-3.42-3.18-2.85,0-3.05,1.73-3.05,1.73h-5c.37-3.58,3.3-6.07,8.21-6.07s8.16,2.37,8.16,8.2v5.35C416.61,139.47,417.45,140,419,140Zm-7.32-4.58v-.4c-3.66.4-7.28.84-7.28,2.93C404.38,141,411.34,140.8,411.66,135.45Z"/><path class="cls-1" d="M434.82,123.59v5.14a9.83,9.83,0,0,0-1.77-.16c-2.81,0-5.74,1.45-5.74,5.15v10.17H422v-20.1h4.1l.72,2.21h.65a8.48,8.48,0,0,1,6.15-2.41Z"/><path class="cls-1" d="M446.2,144.09A10,10,0,0,1,436,133.88a10.2,10.2,0,0,1,10.37-10.29,9.62,9.62,0,0,1,9.61,7.56h-5.46a4.68,4.68,0,0,0-4.27-2.7,5.4,5.4,0,0,0,0,10.78,4.67,4.67,0,0,0,4.11-2.41h5.5A9.75,9.75,0,0,1,446.2,144.09Z"/><path class="cls-1" d="M478.49,133v10.89h-5.38V134.2c0-2,.32-5.95-3.3-5.95-1.77,0-5.19.93-5.19,6.19v9.45h-5.39V115.35h5.11v10.53H465a7.8,7.8,0,0,1,5.79-2.29C476,123.59,478.49,127.45,478.49,133Z"/><path class="cls-1" d="M515.57,135.45A11.73,11.73,0,0,1,504,144.09c-7.36,0-12.71-6-12.71-14.27s5.31-14.27,12.67-14.27a11.81,11.81,0,0,1,11.58,8.64H509.5a5.57,5.57,0,0,0-5.43-3.34c-4.59,0-7.2,3.74-7.2,9s2.66,9,7.28,9a5.46,5.46,0,0,0,5.35-3.34Z"/><path class="cls-1" d="M517.78,133.88a10.07,10.07,0,0,1,10.37-10.29,9.9,9.9,0,0,1,10.18,10.21A10,10,0,0,1,528,144.09,9.91,9.91,0,0,1,517.78,133.88Zm15.28,0c0-3.14-1.85-5.59-4.91-5.59s-5.1,2.45-5.1,5.59,2.05,5.59,5.1,5.59S533.06,137,533.06,133.84Z"/><path class="cls-1" d="M561,123.79v20.1h-4l-.73-2.25h-.52a7.14,7.14,0,0,1-5.87,2.45c-5.35,0-8.08-3.78-8.08-9.41V123.79h5.47v9.69c0,2.49.2,6,3.66,6,1.77,0,4.66-.93,4.66-6.19v-9.45Z"/><path class="cls-1" d="M585.06,133v10.89h-5.35V134.2c0-.68.48-5.75-3.38-5.95-1.89-.12-5.27.93-5.27,6.19v9.45h-5.3v-20.1h4.1l.68,2.45h.68a7.74,7.74,0,0,1,6.12-2.65C582.52,123.59,585.06,127.45,585.06,133Z"/><path class="cls-1" d="M598.69,144.09a10,10,0,0,1-10.17-10.21,10.2,10.2,0,0,1,10.37-10.29,9.63,9.63,0,0,1,9.61,7.56H603a4.66,4.66,0,0,0-4.26-2.7,5.4,5.4,0,0,0,0,10.78,4.65,4.65,0,0,0,4.1-2.41h5.51A9.77,9.77,0,0,1,598.69,144.09Z"/><path class="cls-1" d="M611.6,118.16a3.42,3.42,0,1,1,3.45,3.38A3.46,3.46,0,0,1,611.6,118.16Zm6,25.73h-5.15v-20.1h5.15Z"/><path class="cls-1" d="M627.28,115.35v28.54h-5.23V115.35Z"/><rect class="cls-2" y="17.76" width="141.73" height="141.73"/><path class="cls-1" d="M126.13,33.36H109.61L87.39,57V33.36H55.29v31.4c0,6.73-5,10.63-11.58,10.63s-11.59-3.9-11.59-10.63V33.36H15.6V65C15.6,79.18,27,87.31,40,88.63H15.6v55.26H32.12V123.41h7.22l15.27,20.48h71.52V132.73H106.76V99.79h19.37V85.21L102.45,61l23.68-24.17ZM70.87,71.72V97.36c-3.52-5.94-11.62-8.7-23.63-8.73C58,87.54,67.87,81.76,70.87,71.72ZM32.12,99.79H47.24c6.22,0,8.74,2.41,8.74,6.19s-2.52,6.27-8.74,6.27H32.12Zm58.12,32.94H70.87v7.75L57.23,122.61C67.61,120.7,73,115.33,73,106a18.57,18.57,0,0,0-1-6.19H90.24Zm19.37-44.1H87.39V64.9Z"/><polyline class="cls-3" points="227.92 33.66 243.49 17.76 260.89 0 227.92 0 227.91 0 141.73 0 141.73 17.76 141.73 159.49 243.69 159.49 174.28 88.41 227.91 33.66"/><polygon class="cls-4" points="243.49 17.76 227.92 33.66 227.91 33.66 227.91 33.66 174.28 88.41 243.69 159.49 283.46 159.49 283.46 17.76 243.49 17.76"/></svg>