<?xml version="1.0" encoding="utf-8"?>
<!-- Generator: Adobe Illustrator 21.0.2, SVG Export Plug-In . SVG Version: 6.00 Build 0)  -->
<svg version="1.1" id="Layer_1" xmlns="http://www.w3.org/2000/svg" xmlns:xlink="http://www.w3.org/1999/xlink" x="0px" y="0px"
	 viewBox="0 0 120.7 101.7" style="enable-background:new 0 0 120.7 101.7;" xml:space="preserve">
<style type="text/css">
	.st0{fill:#707070;}
	.st1{fill:#B7B7B7;}
	.st2{fill:#FFFFFF;}
</style>
<g>
	<path class="st0" d="M21,21.8c-6,0-10.9-4.9-10.9-10.9C10.2,4.9,15.1,0,21,0c6,0,10.9,4.9,10.9,10.9C31.9,16.8,27,21.8,21,21.8z"/>
	<rect x="11" y="24.8" class="st0" width="20.5" height="69.8"/>
</g>
<g>
	<path class="st1" d="M57.1,62.2c-3.5-3.4-7-4.3-9.8-4.3c-3.8,0-6.6,2-6.6,4.9c0,8,18,7.9,18,21.1c0,6.5-4.9,11.3-11.7,11.3
		c-4.5,0-8.2-1.2-11.7-3.8v-7.6c3,3.9,6.9,6,11,6c4.6,0,6.8-2.9,6.8-5.2c0-8.6-18-9.6-18-21c0-6.8,5-11.1,12.6-11.1
		c3.2,0,6.3,1,9.3,2.9v6.8H57.1z"/>
	<path class="st1" d="M85.2,58.5H67.6V71h17v5.4h-17v12.9h18.2v5.4H61.6V53.1h23.6V58.5z"/>
	<path class="st1" d="M99,53.1c8.4,0,13.7,4.5,13.7,11.7c0,4.8-2.5,8.4-7,10.2c3.8,2.5,6.1,6.3,9.3,11.5c1.8,2.9,2.8,4.3,5.7,8.2
		h-7.1l-5.5-8.5c-5.5-8.5-8-9.5-11-9.5h-2.5v18.1h-6V53.1H99z M94.5,71.3h3.8c6.4,0,8.2-3.3,8.2-6.8c-0.1-3.9-2.4-6.3-8.2-6.3h-3.8
		V71.3z"/>
</g>
<g>
	<path class="st2" d="M23.9,49.6c-3,0-5.4-2.5-5.4-5.4c0-3,2.5-5.4,5.4-5.4c3,0,5.4,2.5,5.4,5.4S26.8,49.6,23.9,49.6z"/>
	<rect x="19.3" y="53.1" class="st2" width="9.3" height="41.8"/>
</g>
<g>
	<path class="st1" d="M7,43.3c-3.8,0-7-3.2-7-7s3.2-7,7-7s7,3.2,7,7C14,40.2,10.8,43.3,7,43.3z"/>
	<rect x="1" y="47.9" class="st1" width="12" height="53.8"/>
</g>
</svg>
