<?xml version="1.0" encoding="utf-8"?>
<!-- Generator: Adobe Illustrator 21.0.2, SVG Export Plug-In . SVG Version: 6.00 Build 0)  -->
<svg version="1.1" id="Layer_1" xmlns="http://www.w3.org/2000/svg" xmlns:xlink="http://www.w3.org/1999/xlink" x="0px" y="0px"
	 viewBox="0 0 210.4 70.6" style="enable-background:new 0 0 210.4 70.6;" xml:space="preserve">
<style type="text/css">
	.st0{fill:#2C2C2C;}
	.st1{fill:none;}
	.st2{fill:#FFFFFF;}
</style>
<rect x="-16" y="-21" class="st0" width="261" height="119"/>
<line class="st1" x1="0" y1="0" x2="0" y2="0"/>
<g>
	<g>
		<path id="SVGID_1_" class="st2" d="M0,0"/>
	</g>
	<g>
		<path class="st1" d="M0,0"/>
		<g>
			<path class="st2" d="M0,0"/>
		</g>
	</g>
</g>
<rect x="29.1" class="st2" width="14.1" height="14.1"/>
<rect x="14.9" y="14.1" class="st2" width="14.1" height="14.1"/>
<rect x="29.1" y="28.2" class="st2" width="14.1" height="14.1"/>
<rect x="14.9" y="42.4" class="st2" width="14.1" height="14.1"/>
<rect x="29.1" y="56.5" class="st2" width="14.1" height="14.1"/>
<g>
	<path class="st2" d="M75.2,31.9c-1.5,0-2.6,0.9-3.2,2.2l0,0v-1.9h-1.5v10.3H72v-5.4c0-1,0.1-2,0.8-2.8c0.5-0.6,1.3-1,2.1-1
		c0.7,0,1.4,0.3,1.8,0.9c0.3,0.5,0.3,1.3,0.3,1.9v6.4h1.6v-5.7c0-1,0-2.4-0.5-3.3C77.5,32.4,76.4,31.9,75.2,31.9"/>
	<rect x="80.6" y="32.2" class="st2" width="1.6" height="10.3"/>
	<rect x="80.5" y="28.5" class="st2" width="1.7" height="1.8"/>
	<path class="st2" d="M105.1,34.6L105.1,34.6v-2.4h-1.4v10.3h1.6v-5.2c0-0.8,0.1-1.5,0.5-2.2c0.6-1,1.4-1.6,2.7-1.6h0.3V32h-0.6
		C106.5,31.9,105.6,33.2,105.1,34.6"/>
	<path class="st2" d="M116.7,37.1c-0.6-0.4-1.4-0.6-2.1-0.7l-1.5-0.3c-0.9-0.1-1.8-0.4-1.8-1.5s1.3-1.5,2.2-1.5
		c1.2,0,2.2,0.5,2.6,1.6l1.5-0.3c-0.5-1.9-2.2-2.6-4.1-2.6s-3.9,0.9-3.9,3c0,1.8,1.4,2.6,3,2.9l1.7,0.3c0.9,0.2,2,0.5,2,1.6
		c0,1.3-1.4,1.7-2.5,1.7c-1.2,0-2.9-0.5-3.1-1.9l-1.5,0.3c0.5,2.1,2.5,2.9,4.5,2.9s4.3-0.9,4.3-3.2C118,38.5,117.5,37.7,116.7,37.1"
		/>
	<rect x="119.7" y="32.2" class="st2" width="1.6" height="10.3"/>
	<rect x="119.6" y="28.5" class="st2" width="1.7" height="1.8"/>
	<path class="st2" d="M152.9,32.2h-1.8v1.3h1.8v9h1.6v-9h2.4v-1.3h-2.4c0-1.3,0-2.6,1.7-2.6c0.4,0,0.9,0.1,1.3,0.2l0.4-1.3l-1.4-0.1
		C153.9,28.1,152.8,30,152.9,32.2"/>
	<polyline class="st2" points="164.2,35.9 169.8,35.9 169.8,34.5 164.2,34.5 164.2,30 171.2,30 171.2,28.5 162.4,28.5 162.4,42.5 
		171.4,42.5 171.4,41 164.2,41 164.2,35.9 	"/>
	<path class="st2" d="M179.8,37.1c-0.6-0.4-1.4-0.6-2.2-0.7l-1.5-0.3c-0.9-0.1-1.8-0.4-1.8-1.5s1.3-1.5,2.2-1.5
		c1.2,0,2.2,0.5,2.6,1.6l1.5-0.3c-0.5-1.9-2.2-2.6-4.1-2.6c-1.9,0-3.9,0.9-3.9,3c0,1.8,1.4,2.6,3,2.9l1.7,0.3c0.9,0.2,2,0.5,2,1.6
		c0,1.3-1.4,1.7-2.5,1.7c-1.2,0-2.9-0.5-3.1-1.9l-1.5,0.3c0.5,2.1,2.5,2.9,4.5,2.9s4.3-0.9,4.3-3.2C181,38.5,180.6,37.7,179.8,37.1"
		/>
	<path class="st2" d="M189.7,37.1c-0.6-0.4-1.4-0.6-2.2-0.7l-1.5-0.3c-0.9-0.1-1.8-0.4-1.8-1.5s1.3-1.5,2.2-1.5
		c1.2,0,2.2,0.5,2.6,1.6l1.5-0.3c-0.5-1.9-2.2-2.6-4.1-2.6c-1.9,0-3.9,0.9-3.9,3c0,1.8,1.4,2.6,3,2.9l1.7,0.3c0.9,0.2,2,0.5,2,1.6
		c0,1.3-1.4,1.7-2.5,1.7c-1.2,0-2.9-0.5-3.1-1.9l-1.5,0.3c0.5,2.1,2.5,2.9,4.5,2.9s4.3-0.9,4.3-3.2
		C190.9,38.5,190.5,37.7,189.7,37.1"/>
	<path class="st2" d="M199.4,36.3c0-1.7-0.9-3.2-2.8-3.2c-1.7,0-2.8,1.5-2.9,3.2H199.4 M201,39.7c-0.6,1.9-2.4,3-4.4,3
		c-3.1,0-4.7-2.5-4.7-5.4c0-2.8,1.7-5.4,4.8-5.4c3.2,0,4.6,2.7,4.5,5.5h-7.5c0,0.8,0,1.6,0.4,2.3c0.5,1,1.6,1.6,2.6,1.6
		c1.3,0,2.3-0.8,2.8-2L201,39.7z"/>
	<path class="st2" d="M100.2,36.3c0-1.7-0.9-3.2-2.8-3.2c-1.7,0-2.8,1.5-2.9,3.2H100.2 M101.8,39.7c-0.6,1.9-2.4,3-4.4,3
		c-3.1,0-4.7-2.5-4.7-5.4c0-2.8,1.7-5.4,4.8-5.4c3.2,0,4.6,2.7,4.5,5.5h-7.5c0,0.8,0,1.6,0.4,2.3c0.5,1,1.6,1.6,2.6,1.6
		c1.3,0,2.3-0.8,2.8-2L101.8,39.7z"/>
	<path class="st2" d="M148.4,39.9c0.4-0.8,0.5-1.7,0.5-2.6c0-1-0.1-2-0.6-2.8s-1.3-1.2-2.2-1.2c-1,0-1.9,0.6-2.3,1.5
		c-0.4,0.7-0.5,1.7-0.5,2.6c0,0.9,0.1,2,0.6,2.8c0.4,0.8,1.3,1.3,2.3,1.3C147.1,41.3,147.9,40.8,148.4,39.9 M141.4,37.2
		c0-2.9,1.6-5.3,4.7-5.3c3,0,4.5,2.6,4.5,5.4c0,2.9-1.7,5.4-4.8,5.4C142.8,42.7,141.4,39.9,141.4,37.2z"/>
	<path class="st2" d="M66.9,28.5v8.8c0,0.8,0,2-0.6,2.7c-0.6,0.8-2,1-3.1,1.1c-1,0-2.3-0.3-2.9-1.1c-0.6-0.7-0.6-1.9-0.6-2.7v-8.8
		h-1.9v8.8c0,1.4,0.1,2.8,1.2,4c1,1.1,2.6,1.3,4.2,1.3l0,0c1.5,0,3.1-0.3,4.2-1.3c1.1-1.1,1.2-2.5,1.2-4v-8.8H66.9"/>
	<polyline class="st2" points="206.8,36.8 209.9,32.2 209.9,32.1 208.2,32.1 208.2,32.1 206,35.7 203.8,32.2 202,32.2 205.1,37.1 
		201.6,42.5 201.5,42.5 203.2,42.5 203.2,42.5 205.9,38.4 208.5,42.5 210.4,42.5 206.8,36.8 	"/>
	<polyline class="st2" points="92.2,32.1 90.8,32.1 90.8,32.2 88,40.5 85.1,32.2 83.3,32.2 87,42.5 88.7,42.5 92.3,32.2 92.3,32.1 
		92.2,32.1 	"/>
	<path class="st2" d="M138.2,32.1h-1.4l0,0l-2.8,7.7l-2.8-7.7h-4.9v-3.7l-1.6,0.2v3.5h-1.8v1.3h1.8v5.7c0,2,0.7,3.4,2.9,3.4l1.5-0.1
		v-1.3l-1.2,0.1c-1.3,0-1.6-0.6-1.6-1.8v-6h3.7l0,0l3.1,8.9l-0.1,0.3c-0.4,1.1-0.7,2.2-2.2,2.2c-0.3,0-0.6,0-1-0.1h-0.1V46l0,0
		c0.3,0.1,0.8,0.2,1.2,0.2c0.9,0,1.5-0.1,2.1-0.8c0.6-0.6,0.8-1.2,1.1-1.9C134.2,43.5,138.2,32.2,138.2,32.1L138.2,32.1L138.2,32.1"
		/>
</g>
</svg>
